<svg width="13" height="13" viewBox="0 0 13 13" fill="none" xmlns="http://www.w3.org/2000/svg">
<path d="M5.54654 0.692712C5.84665 -0.230924 7.15335 -0.230924 7.45346 0.692711L8.30064 3.30008C8.43486 3.71315 8.81978 3.99281 9.2541 3.99281H11.9957C12.9668 3.99281 13.3706 5.23556 12.5849 5.80639L10.367 7.41784C10.0156 7.67312 9.86856 8.12563 10.0028 8.53869L10.85 11.1461C11.1501 12.0697 10.0929 12.8378 9.30723 12.2669L7.08927 10.6555C6.7379 10.4002 6.2621 10.4002 5.91073 10.6555L3.69277 12.2669C2.90708 12.8378 1.84994 12.0697 2.15004 11.1461L2.99723 8.53869C3.13144 8.12563 2.98441 7.67312 2.63304 7.41784L0.415078 5.80639C-0.370613 5.23556 0.0331784 3.99281 1.00435 3.99281H3.7459C4.18022 3.99281 4.56514 3.71315 4.69936 3.30009L5.54654 0.692712Z" fill="#FFA235"/>
</svg>
