<svg width="21" height="21" viewBox="0 0 21 21" fill="none" xmlns="http://www.w3.org/2000/svg">
<path d="M10.5 0C4.70399 0 0 4.70399 0 10.5C0 16.296 4.70399 21 10.5 21C16.296 21 21 16.296 21 10.5C21 4.70399 16.296 0 10.5 0ZM10.5 4.19999C12.5265 4.19999 14.175 5.84849 14.175 7.87499C14.175 9.90149 12.5265 11.55 10.5 11.55C8.47349 11.55 6.82499 9.90149 6.82499 7.87499C6.82499 5.84849 8.47349 4.19999 10.5 4.19999ZM10.5 18.9C8.36849 18.9 5.84849 18.039 4.05299 15.876C5.89218 14.433 8.16229 13.6487 10.5 13.6487C12.8377 13.6487 15.1078 14.433 16.947 15.876C15.1515 18.039 12.6315 18.9 10.5 18.9Z" fill="#111111" fill-opacity="0.7"/>
</svg>
