<svg width="218" height="51" viewBox="0 0 218 51" fill="none" xmlns="http://www.w3.org/2000/svg">
<path d="M0 0.333496H5.16667V50.3335H0V0.333496ZM10.3333 0.333496H12.9167V50.3335H10.3333V0.333496ZM15.5 0.333496H20.6667V50.3335H15.5V0.333496ZM23.25 0.333496H28.4167V50.3335H23.25V0.333496ZM31 0.333496H36.1667V50.3335H31V0.333496ZM38.75 0.333496H41.3333V50.3335H38.75V0.333496ZM43.9167 0.333496H51.6667V50.3335H43.9167V0.333496Z" fill="black"/>
<path d="M110.833 0.333496H116V50.3335H110.833V0.333496ZM121.167 0.333496H123.75V50.3335H121.167V0.333496ZM126.333 0.333496H131.5V50.3335H126.333V0.333496ZM134.083 0.333496H139.25V50.3335H134.083V0.333496ZM141.833 0.333496H147V50.3335H141.833V0.333496ZM149.583 0.333496H152.167V50.3335H149.583V0.333496ZM154.75 0.333496H162.5V50.3335H154.75V0.333496Z" fill="black"/>
<path d="M55.8335 0H61.0002V50H55.8335V0ZM66.1668 0H68.7502V50H66.1668V0ZM71.3335 0H76.5002V50H71.3335V0ZM79.0835 0H84.2502V50H79.0835V0ZM86.8335 0H92.0002V50H86.8335V0ZM94.5835 0H97.1668V50H94.5835V0ZM99.7502 0H107.5V50H99.7502V0Z" fill="black"/>
<path d="M166.667 0H171.834V50H166.667V0ZM177 0H179.584V50H177V0ZM182.167 0H187.334V50H182.167V0ZM189.917 0H195.084V50H189.917V0ZM197.667 0H202.834V50H197.667V0ZM205.417 0H208V50H205.417V0ZM210.584 0H218V50H210.584V0Z" fill="black"/>
</svg>
