<svg width="24" height="24" viewBox="0 0 24 24" fill="none" xmlns="http://www.w3.org/2000/svg">
<path d="M12.5185 4.20788C12.229 3.93038 11.7715 3.93038 11.482 4.20788L5.732 9.70788C5.5105 9.91988 5.4405 10.2449 5.5545 10.5294C5.6685 10.8139 5.9435 10.9999 6.25 10.9999H17.75C18.056 10.9999 18.332 10.8134 18.4465 10.5294C18.5605 10.2454 18.49 9.91988 18.269 9.70788L12.5185 4.20788ZM17.75 12.9999H6.25C5.9435 12.9999 5.668 13.1864 5.554 13.4704C5.44 13.7544 5.5105 14.0799 5.7315 14.2919L11.4815 19.7919C11.6265 19.9304 11.813 19.9999 12 19.9999C12.187 19.9999 12.3735 19.9304 12.5185 19.7919L18.2685 14.2919C18.4895 14.0799 18.56 13.7549 18.446 13.4704C18.332 13.1864 18.056 12.9999 17.75 12.9999Z" fill="#637394"/>
</svg>
