<svg width="24" height="24" viewBox="0 0 24 24" fill="none" xmlns="http://www.w3.org/2000/svg">
<path fill-rule="evenodd" clip-rule="evenodd" d="M9.17846 4.84309C11.1448 3.70055 13.5618 3.72052 15.5097 4.89541C17.4385 6.09422 18.6108 8.23376 18.5999 10.5353C18.555 12.8217 17.298 14.971 15.7267 16.6325C14.8199 17.5958 13.8054 18.4475 12.704 19.1704C12.5905 19.236 12.4663 19.2799 12.3373 19.3C12.2132 19.2947 12.0924 19.258 11.9857 19.1933C10.3042 18.1071 8.829 16.7206 7.6311 15.1006C6.62873 13.7482 6.05925 12.1144 6 10.421C5.9987 8.11502 7.21209 5.98564 9.17846 4.84309ZM10.3151 11.3754C10.6458 12.1909 11.4266 12.7228 12.2928 12.7228C12.8602 12.7268 13.4057 12.4995 13.8076 12.0915C14.2096 11.6835 14.4347 11.1287 14.4326 10.5506C14.4357 9.66834 13.9162 8.87119 13.1169 8.5314C12.3175 8.19162 11.3959 8.37622 10.7823 8.99902C10.1688 9.62182 9.9843 10.56 10.3151 11.3754Z" fill="#060000"/>
</svg>
