<svg width="13" height="12" viewBox="0 0 13 12" fill="none" xmlns="http://www.w3.org/2000/svg">
<path fill-rule="evenodd" clip-rule="evenodd" d="M6.25532 0C5.82348 0 5.4734 0.350075 5.4734 0.781915V5.25H0.75C0.335786 5.25 1.88775e-08 5.58579 0 6C-1.88775e-08 6.41421 0.335786 6.75 0.749999 6.75H5.4734V11.2181C5.4734 11.6499 5.82348 12 6.25532 12C6.68716 12 7.03723 11.6499 7.03723 11.2181V6.75H11.7606C12.1749 6.75 12.5106 6.41421 12.5106 6C12.5106 5.58579 12.1749 5.25 11.7606 5.25H7.03723V0.781915C7.03723 0.350075 6.68716 0 6.25532 0Z" fill="white"/>
</svg>
