<svg width="18" height="20" viewBox="0 0 18 20" fill="none" xmlns="http://www.w3.org/2000/svg">
<path d="M14.2858 6.6667H16.1906C16.4432 6.6667 16.6854 6.76704 16.864 6.94565C17.0426 7.12426 17.1429 7.3665 17.1429 7.61909V19.0477C17.1429 19.3003 17.0426 19.5426 16.864 19.7212C16.6854 19.8998 16.4432 20.0001 16.1906 20.0001H0.952386C0.699798 20.0001 0.457554 19.8998 0.278947 19.7212C0.10034 19.5426 0 19.3003 0 19.0477V7.61909C0 7.3665 0.10034 7.12426 0.278947 6.94565C0.457554 6.76704 0.699798 6.6667 0.952386 6.6667H2.85716V5.71432C2.85716 4.19879 3.4592 2.74533 4.53084 1.67368C5.60248 0.602042 7.05594 0 8.57147 0C10.087 0 11.5405 0.602042 12.6121 1.67368C13.6837 2.74533 14.2858 4.19879 14.2858 5.71432V6.6667ZM12.381 6.6667V5.71432C12.381 4.70396 11.9797 3.73499 11.2652 3.02056C10.5508 2.30613 9.58183 1.90477 8.57147 1.90477C7.56112 1.90477 6.59215 2.30613 5.87772 3.02056C5.16329 3.73499 4.76193 4.70396 4.76193 5.71432V6.6667H12.381ZM7.61909 12.381V14.2858H9.52386V12.381H7.61909ZM3.80954 12.381V14.2858H5.71432V12.381H3.80954ZM11.4286 12.381V14.2858H13.3334V12.381H11.4286Z" fill="#111111" fill-opacity="0.7"/>
</svg>
